<svg width="62" height="90" viewBox="0 0 62 90" fill="none" xmlns="http://www.w3.org/2000/svg">
<path d="M53 21H9C5.68629 21 3 23.6863 3 27V43C3 46.3137 5.68629 49 9 49H53C56.3137 49 59 46.3137 59 43V27C59 23.6863 56.3137 21 53 21Z" stroke="#A0A7AE" stroke-width="6" stroke-linecap="round" stroke-linejoin="round"/>
<path d="M3 21V11C3 8.87827 3.84285 6.84344 5.34315 5.34315C6.84344 3.84285 8.87827 3 11 3H47C48.5913 3 50.1174 3.63214 51.2426 4.75736C52.3679 5.88258 53 7.4087 53 9V21" stroke="#A0A7AE" stroke-width="6" stroke-linecap="round" stroke-linejoin="round"/>
<path d="M45 38.5C46.933 38.5 48.5 36.933 48.5 35C48.5 33.067 46.933 31.5 45 31.5C43.067 31.5 41.5 33.067 41.5 35C41.5 36.933 43.067 38.5 45 38.5Z" fill="#A0A7AE"/>
<path d="M9.86737 87V78.2727H15.1003V79.2102H10.9242V82.1591H14.7083V83.0966H10.9242V87H9.86737ZM16.774 87V80.4545H17.7797V87H16.774ZM17.2853 79.3636C17.0893 79.3636 16.9203 79.2969 16.7782 79.1634C16.639 79.0298 16.5694 78.8693 16.5694 78.6818C16.5694 78.4943 16.639 78.3338 16.7782 78.2003C16.9203 78.0668 17.0893 78 17.2853 78C17.4814 78 17.649 78.0668 17.7882 78.2003C17.9302 78.3338 18.0012 78.4943 18.0012 78.6818C18.0012 78.8693 17.9302 79.0298 17.7882 79.1634C17.649 79.2969 17.4814 79.3636 17.2853 79.3636ZM20.6273 83.0625V87H19.6216V80.4545H20.5932V81.4773H20.6784C20.8319 81.1449 21.0648 80.8778 21.3773 80.6761C21.6898 80.4716 22.0932 80.3693 22.5875 80.3693C23.0307 80.3693 23.4185 80.4602 23.7509 80.642C24.0833 80.821 24.3418 81.0938 24.5265 81.4602C24.7111 81.8239 24.8034 82.2841 24.8034 82.8409V87H23.7978V82.9091C23.7978 82.3949 23.6642 81.9943 23.3972 81.7074C23.1301 81.4176 22.7637 81.2727 22.2978 81.2727C21.9767 81.2727 21.6898 81.3423 21.437 81.4815C21.187 81.6207 20.9895 81.8239 20.8446 82.0909C20.6998 82.358 20.6273 82.6818 20.6273 83.0625ZM28.5673 87.1534C28.1525 87.1534 27.7761 87.0753 27.438 86.919C27.1 86.7599 26.8315 86.5312 26.6326 86.233C26.4338 85.9318 26.3343 85.5682 26.3343 85.142C26.3343 84.767 26.4082 84.4631 26.5559 84.2301C26.7037 83.9943 26.9011 83.8097 27.1483 83.6761C27.3954 83.5426 27.6681 83.4432 27.9664 83.3778C28.2676 83.3097 28.5701 83.2557 28.8741 83.2159C29.2718 83.1648 29.5943 83.1264 29.8414 83.1009C30.0914 83.0724 30.2733 83.0256 30.3869 82.9602C30.5034 82.8949 30.5616 82.7812 30.5616 82.6193V82.5852C30.5616 82.1648 30.4466 81.8381 30.2164 81.6051C29.9892 81.3722 29.644 81.2557 29.1809 81.2557C28.7008 81.2557 28.3244 81.3608 28.0517 81.571C27.7789 81.7812 27.5872 82.0057 27.4764 82.2443L26.5218 81.9034C26.6923 81.5057 26.9196 81.196 27.2037 80.9744C27.4906 80.75 27.8031 80.5937 28.1412 80.5057C28.4821 80.4148 28.8173 80.3693 29.1468 80.3693C29.3571 80.3693 29.5985 80.3949 29.8713 80.446C30.1468 80.4943 30.4125 80.5952 30.6681 80.7486C30.9267 80.902 31.1412 81.1335 31.3116 81.4432C31.4821 81.7528 31.5673 82.1676 31.5673 82.6875V87H30.5616V86.1136H30.5105C30.4423 86.2557 30.3287 86.4077 30.1696 86.5696C30.0105 86.7315 29.7988 86.8693 29.5346 86.983C29.2704 87.0966 28.948 87.1534 28.5673 87.1534ZM28.7207 86.25C29.1184 86.25 29.4537 86.1719 29.7264 86.0156C30.002 85.8594 30.2093 85.6577 30.3485 85.4105C30.4906 85.1634 30.5616 84.9034 30.5616 84.6307V83.7102C30.519 83.7614 30.4252 83.8082 30.2804 83.8509C30.1383 83.8906 29.9735 83.9261 29.786 83.9574C29.6014 83.9858 29.421 84.0114 29.2449 84.0341C29.0716 84.054 28.9309 84.071 28.823 84.0852C28.5616 84.1193 28.3173 84.1747 28.09 84.2514C27.8656 84.3253 27.6838 84.4375 27.5446 84.5881C27.4082 84.7358 27.34 84.9375 27.34 85.1932C27.34 85.5426 27.4693 85.8068 27.7278 85.9858C27.9892 86.1619 28.3201 86.25 28.7207 86.25ZM34.4086 83.0625V87H33.4029V80.4545H34.3745V81.4773H34.4597C34.6131 81.1449 34.8461 80.8778 35.1586 80.6761C35.4711 80.4716 35.8745 80.3693 36.3688 80.3693C36.812 80.3693 37.1998 80.4602 37.5321 80.642C37.8645 80.821 38.123 81.0938 38.3077 81.4602C38.4924 81.8239 38.5847 82.2841 38.5847 82.8409V87H37.579V82.9091C37.579 82.3949 37.4455 81.9943 37.1784 81.7074C36.9114 81.4176 36.5449 81.2727 36.079 81.2727C35.758 81.2727 35.4711 81.3423 35.2182 81.4815C34.9682 81.6207 34.7708 81.8239 34.6259 82.0909C34.481 82.358 34.4086 82.6818 34.4086 83.0625ZM43.0815 87.1364C42.4679 87.1364 41.9395 86.9915 41.4963 86.7017C41.0531 86.4119 40.7122 86.0128 40.4735 85.5043C40.2349 84.9957 40.1156 84.4148 40.1156 83.7614C40.1156 83.0966 40.2377 82.5099 40.4821 82.0014C40.7292 81.4901 41.073 81.0909 41.5133 80.804C41.9565 80.5142 42.4735 80.3693 43.0645 80.3693C43.5247 80.3693 43.9395 80.4545 44.3088 80.625C44.6781 80.7955 44.9806 81.0341 45.2164 81.3409C45.4522 81.6477 45.5985 82.0057 45.6554 82.4148H44.6497C44.573 82.1165 44.4025 81.8523 44.1383 81.6222C43.877 81.3892 43.5247 81.2727 43.0815 81.2727C42.6895 81.2727 42.3457 81.375 42.0502 81.5795C41.7576 81.7812 41.5289 82.0668 41.3642 82.4361C41.2022 82.8026 41.1213 83.233 41.1213 83.7273C41.1213 84.233 41.2008 84.6733 41.3599 85.0483C41.5218 85.4233 41.7491 85.7145 42.0417 85.9219C42.3372 86.1293 42.6838 86.233 43.0815 86.233C43.3429 86.233 43.5801 86.1875 43.7931 86.0966C44.0062 86.0057 44.1866 85.875 44.3343 85.7045C44.4821 85.5341 44.5872 85.3295 44.6497 85.0909H45.6554C45.5985 85.4773 45.4579 85.8253 45.2335 86.1349C45.0119 86.4418 44.7179 86.6861 44.3514 86.8679C43.9877 87.0469 43.5645 87.1364 43.0815 87.1364ZM49.8699 87.1364C49.2392 87.1364 48.6951 86.9972 48.2377 86.7188C47.7832 86.4375 47.4324 86.0455 47.1852 85.5426C46.9409 85.0369 46.8187 84.4489 46.8187 83.7784C46.8187 83.108 46.9409 82.517 47.1852 82.0057C47.4324 81.4915 47.7761 81.0909 48.2164 80.804C48.6596 80.5142 49.1767 80.3693 49.7676 80.3693C50.1085 80.3693 50.4451 80.4261 50.7775 80.5398C51.1099 80.6534 51.4125 80.8381 51.6852 81.0938C51.9579 81.3466 52.1752 81.6818 52.3372 82.0994C52.4991 82.517 52.5801 83.0312 52.5801 83.642V84.0682H47.5346V83.1989H51.5574C51.5574 82.8295 51.4835 82.5 51.3358 82.2102C51.1909 81.9205 50.9835 81.6918 50.7136 81.5241C50.4466 81.3565 50.1312 81.2727 49.7676 81.2727C49.367 81.2727 49.0204 81.3722 48.7278 81.571C48.438 81.767 48.215 82.0227 48.0588 82.3381C47.9025 82.6534 47.8244 82.9915 47.8244 83.3523V83.9318C47.8244 84.4261 47.9096 84.8452 48.0801 85.1889C48.2534 85.5298 48.4934 85.7898 48.8002 85.9688C49.1071 86.1449 49.4636 86.233 49.8699 86.233C50.1341 86.233 50.3727 86.196 50.5858 86.1222C50.8017 86.0455 50.9877 85.9318 51.144 85.7812C51.3002 85.6278 51.421 85.4375 51.5062 85.2102L52.4778 85.483C52.3755 85.8125 52.2037 86.1023 51.9622 86.3523C51.7207 86.5994 51.4224 86.7926 51.0673 86.9318C50.7122 87.0682 50.313 87.1364 49.8699 87.1364Z" fill="#A0A7AE"/>
</svg>
