<svg width="62" height="52" viewBox="0 0 62 52" fill="none" xmlns="http://www.w3.org/2000/svg">
<path d="M53 21H9C5.68629 21 3 23.6863 3 27V43C3 46.3137 5.68629 49 9 49H53C56.3137 49 59 46.3137 59 43V27C59 23.6863 56.3137 21 53 21Z" stroke="#A0A7AE" stroke-width="6" stroke-linecap="round" stroke-linejoin="round"/>
<path d="M3 21V11C3 8.87827 3.84285 6.84344 5.34315 5.34315C6.84344 3.84285 8.87827 3 11 3H47C48.5913 3 50.1174 3.63214 51.2426 4.75736C52.3679 5.88258 53 7.4087 53 9V21" stroke="#A0A7AE" stroke-width="6" stroke-linecap="round" stroke-linejoin="round"/>
<path d="M45 38.5C46.933 38.5 48.5 36.933 48.5 35C48.5 33.067 46.933 31.5 45 31.5C43.067 31.5 41.5 33.067 41.5 35C41.5 36.933 43.067 38.5 45 38.5Z" fill="#A0A7AE"/>
</svg>
