<svg width="50" height="90" viewBox="0 0 50 90" fill="none" xmlns="http://www.w3.org/2000/svg">
<path d="M3 24L25 3L47 24" stroke="#A0A7AE" stroke-width="6" stroke-linecap="round" stroke-linejoin="round"/>
<path d="M7 24V45H43V24" stroke="#A0A7AE" stroke-width="6" stroke-linecap="round" stroke-linejoin="round"/>
<path d="M13 36L21 31L29 38L37 29" stroke="#A0A7AE" stroke-width="6" stroke-linecap="round" stroke-linejoin="round"/>
<path d="M9.3283 87V78.2727H10.3851V82.1591H15.0385V78.2727H16.0953V87H15.0385V83.0966H10.3851V87H9.3283ZM20.7338 87.1364C20.1429 87.1364 19.6245 86.9957 19.1784 86.7145C18.7353 86.4332 18.3887 86.0398 18.1387 85.5341C17.8915 85.0284 17.7679 84.4375 17.7679 83.7614C17.7679 83.0795 17.8915 82.4844 18.1387 81.9759C18.3887 81.4673 18.7353 81.0724 19.1784 80.7912C19.6245 80.5099 20.1429 80.3693 20.7338 80.3693C21.3248 80.3693 21.8418 80.5099 22.285 80.7912C22.731 81.0724 23.0776 81.4673 23.3248 81.9759C23.5748 82.4844 23.6998 83.0795 23.6998 83.7614C23.6998 84.4375 23.5748 85.0284 23.3248 85.5341C23.0776 86.0398 22.731 86.4332 22.285 86.7145C21.8418 86.9957 21.3248 87.1364 20.7338 87.1364ZM20.7338 86.233C21.1827 86.233 21.552 86.1179 21.8418 85.8878C22.1316 85.6577 22.3461 85.3551 22.4853 84.9801C22.6245 84.6051 22.6941 84.1989 22.6941 83.7614C22.6941 83.3239 22.6245 82.9162 22.4853 82.5384C22.3461 82.1605 22.1316 81.8551 21.8418 81.6222C21.552 81.3892 21.1827 81.2727 20.7338 81.2727C20.285 81.2727 19.9157 81.3892 19.6259 81.6222C19.3361 81.8551 19.1216 82.1605 18.9824 82.5384C18.8432 82.9162 18.7736 83.3239 18.7736 83.7614C18.7736 84.1989 18.8432 84.6051 18.9824 84.9801C19.1216 85.3551 19.3361 85.6577 19.6259 85.8878C19.9157 86.1179 20.285 86.233 20.7338 86.233ZM25.2349 87V80.4545H26.2065V81.4773H26.2917C26.4281 81.1278 26.6483 80.8565 26.9522 80.6634C27.2562 80.4673 27.6213 80.3693 28.0474 80.3693C28.4792 80.3693 28.8386 80.4673 29.1255 80.6634C29.4153 80.8565 29.6412 81.1278 29.8031 81.4773H29.8713C30.0389 81.1392 30.2903 80.8707 30.6255 80.6719C30.9608 80.4702 31.3627 80.3693 31.8315 80.3693C32.4167 80.3693 32.8954 80.5526 33.2676 80.919C33.6397 81.2827 33.8258 81.8494 33.8258 82.6193V87H32.8201V82.6193C32.8201 82.1364 32.688 81.7912 32.4238 81.5838C32.1596 81.3764 31.8485 81.2727 31.4906 81.2727C31.0304 81.2727 30.6738 81.4119 30.421 81.6903C30.1681 81.9659 30.0417 82.3153 30.0417 82.7386V87H29.019V82.517C29.019 82.1449 28.8983 81.8452 28.6568 81.6179C28.4153 81.3878 28.1042 81.2727 27.7235 81.2727C27.4622 81.2727 27.2179 81.3423 26.9906 81.4815C26.7662 81.6207 26.5843 81.8139 26.4451 82.0611C26.3088 82.3054 26.2406 82.5881 26.2406 82.9091V87H25.2349ZM38.4089 87.1364C37.7782 87.1364 37.2342 86.9972 36.7768 86.7188C36.3223 86.4375 35.9714 86.0455 35.7243 85.5426C35.4799 85.0369 35.3578 84.4489 35.3578 83.7784C35.3578 83.108 35.4799 82.517 35.7243 82.0057C35.9714 81.4915 36.3152 81.0909 36.7555 80.804C37.1987 80.5142 37.7157 80.3693 38.3066 80.3693C38.6475 80.3693 38.9842 80.4261 39.3166 80.5398C39.649 80.6534 39.9515 80.8381 40.2243 81.0938C40.497 81.3466 40.7143 81.6818 40.8762 82.0994C41.0382 82.517 41.1191 83.0312 41.1191 83.642V84.0682H36.0737V83.1989H40.0964C40.0964 82.8295 40.0225 82.5 39.8748 82.2102C39.7299 81.9205 39.5225 81.6918 39.2527 81.5241C38.9856 81.3565 38.6703 81.2727 38.3066 81.2727C37.9061 81.2727 37.5595 81.3722 37.2669 81.571C36.9771 81.767 36.7541 82.0227 36.5978 82.3381C36.4416 82.6534 36.3635 82.9915 36.3635 83.3523V83.9318C36.3635 84.4261 36.4487 84.8452 36.6191 85.1889C36.7924 85.5298 37.0325 85.7898 37.3393 85.9688C37.6461 86.1449 38.0027 86.233 38.4089 86.233C38.6731 86.233 38.9118 86.196 39.1248 86.1222C39.3407 86.0455 39.5268 85.9318 39.6831 85.7812C39.8393 85.6278 39.96 85.4375 40.0453 85.2102L41.0169 85.483C40.9146 85.8125 40.7427 86.1023 40.5012 86.3523C40.2598 86.5994 39.9615 86.7926 39.6064 86.9318C39.2512 87.0682 38.8521 87.1364 38.4089 87.1364Z" fill="#A0A7AE"/>
</svg>
