<svg width="50" height="82" viewBox="0 0 50 82" fill="none" xmlns="http://www.w3.org/2000/svg">
<path d="M25 3C19.1652 3 13.5695 5.31785 9.44365 9.44365C5.31785 13.5695 3 19.1652 3 25C3 34 8 41 15 45V51H35V45C42 41 47 34 47 25C47 19.1652 44.6822 13.5695 40.5564 9.44365C36.4306 5.31785 30.8348 3 25 3Z" stroke="#A0A7AE" stroke-width="6" stroke-linecap="round" stroke-linejoin="round"/>
<path d="M32 51H18C16.3431 51 15 52.3431 15 54C15 55.6569 16.3431 57 18 57H32C33.6569 57 35 55.6569 35 54C35 52.3431 33.6569 51 32 51Z" stroke="#A0A7AE" stroke-width="6" stroke-linecap="round" stroke-linejoin="round"/>
<path d="M5.00036 70.2727V79H3.94354V70.2727H5.00036ZM7.98864 75.0625V79H6.98295V72.4545H7.95455V73.4773H8.03977C8.19318 73.1449 8.42614 72.8778 8.73864 72.6761C9.05114 72.4716 9.45455 72.3693 9.94886 72.3693C10.392 72.3693 10.7798 72.4602 11.1122 72.642C11.4446 72.821 11.7031 73.0938 11.8878 73.4602C12.0724 73.8239 12.1648 74.2841 12.1648 74.8409V79H11.1591V74.9091C11.1591 74.3949 11.0256 73.9943 10.7585 73.7074C10.4915 73.4176 10.125 73.2727 9.65909 73.2727C9.33807 73.2727 9.05114 73.3423 8.7983 73.4815C8.5483 73.6207 8.35085 73.8239 8.20597 74.0909C8.06108 74.358 7.98864 74.6818 7.98864 75.0625ZM18.6388 73.9205L17.7354 74.1761C17.6786 74.0256 17.5948 73.8793 17.484 73.7372C17.3761 73.5923 17.2283 73.473 17.0408 73.3793C16.8533 73.2855 16.6133 73.2386 16.3207 73.2386C15.9201 73.2386 15.5863 73.331 15.3192 73.5156C15.055 73.6974 14.9229 73.929 14.9229 74.2102C14.9229 74.4602 15.0138 74.6577 15.1957 74.8026C15.3775 74.9474 15.6616 75.0682 16.0479 75.1648L17.0195 75.4034C17.6048 75.5455 18.0408 75.7628 18.3278 76.0554C18.6147 76.3452 18.7582 76.7187 18.7582 77.1761C18.7582 77.5511 18.6502 77.8864 18.4343 78.1818C18.2212 78.4773 17.9229 78.7102 17.5394 78.8807C17.1559 79.0511 16.7099 79.1364 16.2013 79.1364C15.5337 79.1364 14.9812 78.9915 14.5437 78.7017C14.1062 78.4119 13.8292 77.9886 13.7127 77.4318L14.6673 77.1932C14.7582 77.5455 14.93 77.8097 15.1829 77.9858C15.4386 78.1619 15.7724 78.25 16.1843 78.25C16.6531 78.25 17.0252 78.1506 17.3008 77.9517C17.5792 77.75 17.7184 77.5085 17.7184 77.2273C17.7184 77 17.6388 76.8097 17.4798 76.6562C17.3207 76.5 17.0763 76.3835 16.7468 76.3068L15.6559 76.0511C15.0565 75.9091 14.6161 75.6889 14.3349 75.3906C14.0565 75.0895 13.9173 74.7131 13.9173 74.2614C13.9173 73.892 14.021 73.5653 14.2283 73.2812C14.4386 72.9972 14.7241 72.7741 15.0849 72.6122C15.4485 72.4503 15.8604 72.3693 16.3207 72.3693C16.9684 72.3693 17.4769 72.5114 17.8462 72.7955C18.2184 73.0795 18.4826 73.4545 18.6388 73.9205ZM20.272 79V72.4545H21.2777V79H20.272ZM20.7834 71.3636C20.5874 71.3636 20.4183 71.2969 20.2763 71.1634C20.1371 71.0298 20.0675 70.8693 20.0675 70.6818C20.0675 70.4943 20.1371 70.3338 20.2763 70.2003C20.4183 70.0668 20.5874 70 20.7834 70C20.9794 70 21.147 70.0668 21.2862 70.2003C21.4283 70.3338 21.4993 70.4943 21.4993 70.6818C21.4993 70.8693 21.4283 71.0298 21.2862 71.1634C21.147 71.2969 20.9794 71.3636 20.7834 71.3636ZM25.7617 81.5909C25.2759 81.5909 24.8583 81.5284 24.5089 81.4034C24.1594 81.2812 23.8683 81.1193 23.6353 80.9176C23.4052 80.7188 23.2219 80.5057 23.0856 80.2784L23.8867 79.7159C23.9776 79.8352 24.0927 79.9716 24.2319 80.125C24.3711 80.2812 24.5614 80.4162 24.8029 80.5298C25.0472 80.6463 25.3668 80.7045 25.7617 80.7045C26.2901 80.7045 26.7262 80.5767 27.07 80.321C27.4137 80.0653 27.5856 79.6648 27.5856 79.1193V77.7898H27.5004C27.4265 77.9091 27.3214 78.0568 27.185 78.233C27.0515 78.4062 26.8583 78.5611 26.6055 78.6974C26.3555 78.831 26.0174 78.8977 25.5913 78.8977C25.0629 78.8977 24.5884 78.7727 24.168 78.5227C23.7504 78.2727 23.4194 77.9091 23.1751 77.4318C22.9336 76.9545 22.8129 76.375 22.8129 75.6932C22.8129 75.0227 22.9308 74.4389 23.1665 73.9418C23.4023 73.4418 23.7305 73.0554 24.1509 72.7827C24.5714 72.5071 25.0572 72.3693 25.6083 72.3693C26.0344 72.3693 26.3725 72.4403 26.6225 72.5824C26.8754 72.7216 27.0685 72.8807 27.2021 73.0597C27.3384 73.2358 27.4435 73.3807 27.5174 73.4943H27.6197V72.4545H28.5913V79.1875C28.5913 79.75 28.4634 80.2074 28.2077 80.5597C27.9549 80.9148 27.614 81.1747 27.185 81.3395C26.7589 81.5071 26.2844 81.5909 25.7617 81.5909ZM25.7276 77.9943C26.131 77.9943 26.4719 77.902 26.7504 77.7173C27.0288 77.5327 27.2404 77.267 27.3853 76.9205C27.5302 76.5739 27.6026 76.1591 27.6026 75.6761C27.6026 75.2045 27.5316 74.7884 27.3896 74.4276C27.2475 74.0668 27.0373 73.7841 26.7589 73.5795C26.4805 73.375 26.1367 73.2727 25.7276 73.2727C25.3015 73.2727 24.9464 73.3807 24.6623 73.5966C24.381 73.8125 24.1694 74.1023 24.0273 74.4659C23.8881 74.8295 23.8185 75.233 23.8185 75.6761C23.8185 76.1307 23.8896 76.5327 24.0316 76.8821C24.1765 77.2287 24.3896 77.5014 24.6708 77.7003C24.9549 77.8963 25.3072 77.9943 25.7276 77.9943ZM31.4379 75.0625V79H30.4322V70.2727H31.4379V73.4773H31.5231C31.6765 73.1392 31.9066 72.8707 32.2134 72.6719C32.5231 72.4702 32.935 72.3693 33.4492 72.3693C33.8952 72.3693 34.2859 72.4588 34.6211 72.6378C34.9563 72.8139 35.2163 73.0852 35.4009 73.4517C35.5884 73.8153 35.6822 74.2784 35.6822 74.8409V79H34.6765V74.9091C34.6765 74.3892 34.5415 73.9872 34.2717 73.7031C34.0046 73.4162 33.6339 73.2727 33.1594 73.2727C32.8299 73.2727 32.5344 73.3423 32.2731 73.4815C32.0146 73.6207 31.81 73.8239 31.6594 74.0909C31.5117 74.358 31.4379 74.6818 31.4379 75.0625ZM40.3686 72.4545V73.3068H36.9766V72.4545H40.3686ZM37.9652 70.8864H38.9709V77.125C38.9709 77.4091 39.0121 77.6222 39.0945 77.7642C39.1797 77.9034 39.2876 77.9972 39.4183 78.0455C39.5518 78.0909 39.6925 78.1136 39.8402 78.1136C39.951 78.1136 40.0419 78.108 40.1129 78.0966C40.1839 78.0824 40.2408 78.071 40.2834 78.0625L40.4879 78.9659C40.4197 78.9915 40.3246 79.017 40.2024 79.0426C40.0803 79.071 39.9254 79.0852 39.7379 79.0852C39.4538 79.0852 39.1754 79.0241 38.9027 78.902C38.6328 78.7798 38.4084 78.5938 38.2294 78.3438C38.0533 78.0938 37.9652 77.7784 37.9652 77.3977V70.8864ZM46.4006 73.9205L45.4972 74.1761C45.4403 74.0256 45.3565 73.8793 45.2457 73.7372C45.1378 73.5923 44.9901 73.473 44.8026 73.3793C44.6151 73.2855 44.375 73.2386 44.0824 73.2386C43.6818 73.2386 43.348 73.331 43.081 73.5156C42.8168 73.6974 42.6847 73.929 42.6847 74.2102C42.6847 74.4602 42.7756 74.6577 42.9574 74.8026C43.1392 74.9474 43.4233 75.0682 43.8097 75.1648L44.7812 75.4034C45.3665 75.5455 45.8026 75.7628 46.0895 76.0554C46.3764 76.3452 46.5199 76.7187 46.5199 77.1761C46.5199 77.5511 46.4119 77.8864 46.196 78.1818C45.983 78.4773 45.6847 78.7102 45.3011 78.8807C44.9176 79.0511 44.4716 79.1364 43.9631 79.1364C43.2955 79.1364 42.7429 78.9915 42.3054 78.7017C41.8679 78.4119 41.5909 77.9886 41.4744 77.4318L42.429 77.1932C42.5199 77.5455 42.6918 77.8097 42.9446 77.9858C43.2003 78.1619 43.5341 78.25 43.946 78.25C44.4148 78.25 44.7869 78.1506 45.0625 77.9517C45.3409 77.75 45.4801 77.5085 45.4801 77.2273C45.4801 77 45.4006 76.8097 45.2415 76.6562C45.0824 76.5 44.8381 76.3835 44.5085 76.3068L43.4176 76.0511C42.8182 75.9091 42.3778 75.6889 42.0966 75.3906C41.8182 75.0895 41.679 74.7131 41.679 74.2614C41.679 73.892 41.7827 73.5653 41.9901 73.2812C42.2003 72.9972 42.4858 72.7741 42.8466 72.6122C43.2102 72.4503 43.6222 72.3693 44.0824 72.3693C44.7301 72.3693 45.2386 72.5114 45.608 72.7955C45.9801 73.0795 46.2443 73.4545 46.4006 73.9205Z" fill="#A0A7AE"/>
</svg>
