<svg width="42" height="66" viewBox="0 0 42 66" fill="none" xmlns="http://www.w3.org/2000/svg">
<path d="M3 3H39" stroke="#A0A7AE" stroke-width="6" stroke-linecap="round"/>
<path d="M3 15H39" stroke="#A0A7AE" stroke-width="6" stroke-linecap="round"/>
<path d="M3 27H39" stroke="#A0A7AE" stroke-width="6" stroke-linecap="round"/>
<path d="M7.51385 54.2727H8.77521L11.7411 61.517H11.8434L14.8093 54.2727H16.0707V63H15.082V56.3693H14.9968L12.2695 63H11.315L8.58771 56.3693H8.50249V63H7.51385V54.2727ZM20.7124 63.1364C20.1214 63.1364 19.603 62.9957 19.157 62.7145C18.7138 62.4332 18.3672 62.0398 18.1172 61.5341C17.87 61.0284 17.7464 60.4375 17.7464 59.7614C17.7464 59.0795 17.87 58.4844 18.1172 57.9759C18.3672 57.4673 18.7138 57.0724 19.157 56.7912C19.603 56.5099 20.1214 56.3693 20.7124 56.3693C21.3033 56.3693 21.8203 56.5099 22.2635 56.7912C22.7095 57.0724 23.0561 57.4673 23.3033 57.9759C23.5533 58.4844 23.6783 59.0795 23.6783 59.7614C23.6783 60.4375 23.5533 61.0284 23.3033 61.5341C23.0561 62.0398 22.7095 62.4332 22.2635 62.7145C21.8203 62.9957 21.3033 63.1364 20.7124 63.1364ZM20.7124 62.233C21.1612 62.233 21.5305 62.1179 21.8203 61.8878C22.1101 61.6577 22.3246 61.3551 22.4638 60.9801C22.603 60.6051 22.6726 60.1989 22.6726 59.7614C22.6726 59.3239 22.603 58.9162 22.4638 58.5384C22.3246 58.1605 22.1101 57.8551 21.8203 57.6222C21.5305 57.3892 21.1612 57.2727 20.7124 57.2727C20.2635 57.2727 19.8942 57.3892 19.6044 57.6222C19.3146 57.8551 19.1001 58.1605 18.9609 58.5384C18.8217 58.9162 18.7521 59.3239 18.7521 59.7614C18.7521 60.1989 18.8217 60.6051 18.9609 60.9801C19.1001 61.3551 19.3146 61.6577 19.6044 61.8878C19.8942 62.1179 20.2635 62.233 20.7124 62.233ZM25.2134 63V56.4545H26.185V57.4432H26.2532C26.3725 57.1193 26.5884 56.8565 26.9009 56.6548C27.2134 56.4531 27.5657 56.3523 27.9577 56.3523C28.0316 56.3523 28.1239 56.3537 28.2347 56.3565C28.3455 56.3594 28.4293 56.3636 28.4862 56.3693V57.392C28.4521 57.3835 28.3739 57.3707 28.2518 57.3537C28.1325 57.3338 28.006 57.3239 27.8725 57.3239C27.5543 57.3239 27.2702 57.3906 27.0202 57.5241C26.7731 57.6548 26.5771 57.8366 26.4322 58.0696C26.2901 58.2997 26.2191 58.5625 26.2191 58.858V63H25.2134ZM32.2234 63.1364C31.5927 63.1364 31.0487 62.9972 30.5913 62.7188C30.1367 62.4375 29.7859 62.0455 29.5387 61.5426C29.2944 61.0369 29.1722 60.4489 29.1722 59.7784C29.1722 59.108 29.2944 58.517 29.5387 58.0057C29.7859 57.4915 30.1296 57.0909 30.57 56.804C31.0131 56.5142 31.5302 56.3693 32.1211 56.3693C32.462 56.3693 32.7987 56.4261 33.131 56.5398C33.4634 56.6534 33.766 56.8381 34.0387 57.0938C34.3114 57.3466 34.5288 57.6818 34.6907 58.0994C34.8526 58.517 34.9336 59.0312 34.9336 59.642V60.0682H29.8881V59.1989H33.9109C33.9109 58.8295 33.837 58.5 33.6893 58.2102C33.5444 57.9205 33.337 57.6918 33.0671 57.5241C32.8001 57.3565 32.4847 57.2727 32.1211 57.2727C31.7205 57.2727 31.3739 57.3722 31.0813 57.571C30.7915 57.767 30.5685 58.0227 30.4123 58.3381C30.256 58.6534 30.1779 58.9915 30.1779 59.3523V59.9318C30.1779 60.4261 30.2631 60.8452 30.4336 61.1889C30.6069 61.5298 30.8469 61.7898 31.1538 61.9688C31.4606 62.1449 31.8171 62.233 32.2234 62.233C32.4876 62.233 32.7262 62.196 32.9393 62.1222C33.1552 62.0455 33.3413 61.9318 33.4975 61.7812C33.6538 61.6278 33.7745 61.4375 33.8597 61.2102L34.8313 61.483C34.729 61.8125 34.5572 62.1023 34.3157 62.3523C34.0742 62.5994 33.7759 62.7926 33.4208 62.9318C33.0657 63.0682 32.6665 63.1364 32.2234 63.1364Z" fill="#A0A7AE"/>
</svg>
