<svg width="62" height="78" viewBox="0 0 62 78" fill="none" xmlns="http://www.w3.org/2000/svg">
<path d="M51 11H11C6.58172 11 3 14.5817 3 19V37C3 41.4183 6.58172 45 11 45H51C55.4183 45 59 41.4183 59 37V19C59 14.5817 55.4183 11 51 11Z" stroke="#A0A7AE" stroke-width="6" stroke-linecap="round" stroke-linejoin="round"/>
<path d="M19 3V13M43 3V13" stroke="#A0A7AE" stroke-width="6" stroke-linecap="round" stroke-linejoin="round"/>
<path d="M3 19H59" stroke="#A0A7AE" stroke-width="6" stroke-linecap="round" stroke-linejoin="round"/>
<path d="M27 29L33 35L45 25" stroke="#A0A7AE" stroke-width="6" stroke-linecap="round" stroke-linejoin="round"/>
<path d="M10.6994 75V66.2727H13.6483C14.3329 66.2727 14.8926 66.3963 15.3272 66.6435C15.7647 66.8878 16.0886 67.2188 16.2988 67.6364C16.5091 68.054 16.6142 68.5199 16.6142 69.0341C16.6142 69.5483 16.5091 70.0156 16.2988 70.4361C16.0914 70.8565 15.7704 71.1918 15.3358 71.4418C14.9011 71.6889 14.3443 71.8125 13.6653 71.8125H11.5517V70.875H13.6312C14.1 70.875 14.4764 70.794 14.7605 70.6321C15.0446 70.4702 15.2505 70.2514 15.3784 69.9759C15.5091 69.6974 15.5744 69.3835 15.5744 69.0341C15.5744 68.6847 15.5091 68.3722 15.3784 68.0966C15.2505 67.821 15.0431 67.6051 14.7562 67.4489C14.4693 67.2898 14.0886 67.2102 13.6142 67.2102H11.7562V75H10.6994ZM19.1859 66.2727V75H18.1802V66.2727H19.1859ZM22.954 75.1534C22.5392 75.1534 22.1628 75.0753 21.8248 74.919C21.4867 74.7599 21.2182 74.5312 21.0194 74.233C20.8205 73.9318 20.7211 73.5682 20.7211 73.142C20.7211 72.767 20.7949 72.4631 20.9426 72.2301C21.0904 71.9943 21.2878 71.8097 21.535 71.6761C21.7821 71.5426 22.0549 71.4432 22.3532 71.3778C22.6543 71.3097 22.9569 71.2557 23.2608 71.2159C23.6586 71.1648 23.981 71.1264 24.2282 71.1009C24.4782 71.0724 24.66 71.0256 24.7736 70.9602C24.8901 70.8949 24.9483 70.7812 24.9483 70.6193V70.5852C24.9483 70.1648 24.8333 69.8381 24.6032 69.6051C24.3759 69.3722 24.0307 69.2557 23.5676 69.2557C23.0875 69.2557 22.7111 69.3608 22.4384 69.571C22.1657 69.7812 21.9739 70.0057 21.8631 70.2443L20.9086 69.9034C21.079 69.5057 21.3063 69.196 21.5904 68.9744C21.8773 68.75 22.1898 68.5937 22.5279 68.5057C22.8688 68.4148 23.204 68.3693 23.5336 68.3693C23.7438 68.3693 23.9853 68.3949 24.258 68.446C24.5336 68.4943 24.7992 68.5952 25.0549 68.7486C25.3134 68.902 25.5279 69.1335 25.6983 69.4432C25.8688 69.7528 25.954 70.1676 25.954 70.6875V75H24.9483V74.1136H24.8972C24.829 74.2557 24.7154 74.4077 24.5563 74.5696C24.3972 74.7315 24.1855 74.8693 23.9213 74.983C23.6571 75.0966 23.3347 75.1534 22.954 75.1534ZM23.1074 74.25C23.5051 74.25 23.8404 74.1719 24.1131 74.0156C24.3887 73.8594 24.5961 73.6577 24.7353 73.4105C24.8773 73.1634 24.9483 72.9034 24.9483 72.6307V71.7102C24.9057 71.7614 24.812 71.8082 24.6671 71.8509C24.525 71.8906 24.3603 71.9261 24.1728 71.9574C23.9881 71.9858 23.8077 72.0114 23.6316 72.0341C23.4583 72.054 23.3176 72.071 23.2097 72.0852C22.9483 72.1193 22.704 72.1747 22.4767 72.2514C22.2523 72.3253 22.0705 72.4375 21.9313 72.5881C21.7949 72.7358 21.7267 72.9375 21.7267 73.1932C21.7267 73.5426 21.856 73.8068 22.1145 73.9858C22.3759 74.1619 22.7069 74.25 23.1074 74.25ZM28.7953 71.0625V75H27.7896V68.4545H28.7612V69.4773H28.8464C28.9998 69.1449 29.2328 68.8778 29.5453 68.6761C29.8578 68.4716 30.2612 68.3693 30.7555 68.3693C31.1987 68.3693 31.5865 68.4602 31.9189 68.642C32.2512 68.821 32.5098 69.0938 32.6944 69.4602C32.8791 69.8239 32.9714 70.2841 32.9714 70.8409V75H31.9657V70.9091C31.9657 70.3949 31.8322 69.9943 31.5652 69.7074C31.2981 69.4176 30.9316 69.2727 30.4657 69.2727C30.1447 69.2727 29.8578 69.3423 29.6049 69.4815C29.3549 69.6207 29.1575 69.8239 29.0126 70.0909C28.8677 70.358 28.7953 70.6818 28.7953 71.0625ZM35.8148 71.0625V75H34.8091V68.4545H35.7807V69.4773H35.8659C36.0194 69.1449 36.2523 68.8778 36.5648 68.6761C36.8773 68.4716 37.2807 68.3693 37.775 68.3693C38.2182 68.3693 38.606 68.4602 38.9384 68.642C39.2708 68.821 39.5293 69.0938 39.714 69.4602C39.8986 69.8239 39.9909 70.2841 39.9909 70.8409V75H38.9853V70.9091C38.9853 70.3949 38.8517 69.9943 38.5847 69.7074C38.3176 69.4176 37.9512 69.2727 37.4853 69.2727C37.1642 69.2727 36.8773 69.3423 36.6245 69.4815C36.3745 69.6207 36.177 69.8239 36.0321 70.0909C35.8873 70.358 35.8148 70.6818 35.8148 71.0625ZM44.573 75.1364C43.9423 75.1364 43.3983 74.9972 42.9409 74.7188C42.4863 74.4375 42.1355 74.0455 41.8883 73.5426C41.644 73.0369 41.5218 72.4489 41.5218 71.7784C41.5218 71.108 41.644 70.517 41.8883 70.0057C42.1355 69.4915 42.4792 69.0909 42.9196 68.804C43.3627 68.5142 43.8798 68.3693 44.4707 68.3693C44.8116 68.3693 45.1483 68.4261 45.4806 68.5398C45.813 68.6534 46.1156 68.8381 46.3883 69.0938C46.661 69.3466 46.8784 69.6818 47.0403 70.0994C47.2022 70.517 47.2832 71.0312 47.2832 71.642V72.0682H42.2377V71.1989H46.2605C46.2605 70.8295 46.1866 70.5 46.0389 70.2102C45.894 69.9205 45.6866 69.6918 45.4167 69.5241C45.1497 69.3565 44.8343 69.2727 44.4707 69.2727C44.0701 69.2727 43.7235 69.3722 43.4309 69.571C43.1412 69.767 42.9181 70.0227 42.7619 70.3381C42.6056 70.6534 42.5275 70.9915 42.5275 71.3523V71.9318C42.5275 72.4261 42.6127 72.8452 42.7832 73.1889C42.9565 73.5298 43.1966 73.7898 43.5034 73.9688C43.8102 74.1449 44.1667 74.233 44.573 74.233C44.8372 74.233 45.0758 74.196 45.2889 74.1222C45.5048 74.0455 45.6909 73.9318 45.8471 73.7812C46.0034 73.6278 46.1241 73.4375 46.2093 73.2102L47.1809 73.483C47.0787 73.8125 46.9068 74.1023 46.6653 74.3523C46.4238 74.5994 46.1255 74.7926 45.7704 74.9318C45.4153 75.0682 45.0162 75.1364 44.573 75.1364ZM48.813 75V68.4545H49.7846V69.4432H49.8528C49.9721 69.1193 50.188 68.8565 50.5005 68.6548C50.813 68.4531 51.1653 68.3523 51.5574 68.3523C51.6312 68.3523 51.7235 68.3537 51.8343 68.3565C51.9451 68.3594 52.0289 68.3636 52.0858 68.3693V69.392C52.0517 69.3835 51.9735 69.3707 51.8514 69.3537C51.7321 69.3338 51.6056 69.3239 51.4721 69.3239C51.1539 69.3239 50.8699 69.3906 50.6199 69.5241C50.3727 69.6548 50.1767 69.8366 50.0318 70.0696C49.8897 70.2997 49.8187 70.5625 49.8187 70.858V75H48.813Z" fill="#A0A7AE"/>
</svg>
